<svg width="32" height="32" viewBox="0 0 32 32" fill="none" xmlns="http://www.w3.org/2000/svg">
<path d="M16 32C7.1648 32 0 24.8352 0 16C0 7.1648 7.1648 0 16 0C24.8352 0 32 7.1648 32 16C32 24.8352 24.8352 32 16 32Z" fill="url(#paint0_linear_5053_7)"/>
<path d="M15.999 7.04637C18.9142 7.04637 19.2598 7.05597 20.4118 7.11037C21.4774 7.15837 22.0566 7.33757 22.4406 7.48797C22.9494 7.68637 23.3142 7.92317 23.695 8.30397C24.0758 8.68477 24.3126 9.04957 24.511 9.55837C24.6614 9.94237 24.8374 10.5216 24.8886 11.5872C24.9398 12.7392 24.9526 13.0848 24.9526 16C24.9526 18.9152 24.943 19.2608 24.8886 20.4128C24.8406 21.4784 24.6614 22.0576 24.511 22.4416C24.3126 22.9504 24.0758 23.3152 23.695 23.696C23.3142 24.0768 22.9494 24.3136 22.4406 24.512C22.0566 24.6624 21.4774 24.8384 20.4118 24.8896C19.2598 24.9408 18.9142 24.9536 15.999 24.9536C13.0838 24.9536 12.7382 24.944 11.5862 24.8896C10.5206 24.8416 9.94143 24.6624 9.55743 24.512C9.04862 24.3136 8.68382 24.0768 8.30302 23.696C7.92222 23.3152 7.68542 22.9504 7.48702 22.4416C7.33662 22.0576 7.16062 21.4784 7.10942 20.4128C7.05822 19.2608 7.04542 18.9152 7.04542 16C7.04542 13.0848 7.05502 12.7392 7.10942 11.5872C7.15742 10.5216 7.33662 9.94237 7.48702 9.55837C7.68542 9.04957 7.92222 8.68477 8.30302 8.30397C8.68382 7.92317 9.04862 7.68637 9.55743 7.48797C9.94143 7.33757 10.5206 7.16157 11.5862 7.11037C12.7382 7.05597 13.0838 7.04637 15.999 7.04637ZM15.999 5.07837C13.0326 5.07837 12.6614 5.09117 11.4966 5.14557C10.335 5.19997 9.54142 5.38237 8.84382 5.65437C8.12702 5.92957 7.51582 6.30397 6.91102 6.91197C6.30302 7.51997 5.93182 8.12797 5.65022 8.84797C5.38142 9.54237 5.19582 10.336 5.14142 11.5008C5.08702 12.6656 5.07422 13.0368 5.07422 16.0032C5.07422 18.9696 5.08702 19.3408 5.14142 20.5056C5.19582 21.6672 5.37822 22.4608 5.65022 23.1584C5.92862 23.872 6.30302 24.4832 6.91102 25.088C7.51902 25.696 8.12702 26.0672 8.84702 26.3488C9.54143 26.6176 10.335 26.8032 11.4998 26.8576C12.6646 26.912 13.0358 26.9248 16.0022 26.9248C18.9686 26.9248 19.3398 26.912 20.5046 26.8576C21.6662 26.8032 22.4598 26.6208 23.1574 26.3488C23.871 26.0704 24.4822 25.696 25.087 25.088C25.695 24.48 26.0663 23.872 26.3479 23.152C26.6167 22.4576 26.8022 21.664 26.8566 20.4992C26.911 19.3344 26.9239 18.9632 26.9239 15.9968C26.9239 13.0304 26.911 12.6592 26.8566 11.4944C26.8022 10.3328 26.6199 9.53917 26.3479 8.84157C26.0695 8.12797 25.695 7.51677 25.087 6.91197C24.479 6.30397 23.871 5.93277 23.151 5.65117C22.4566 5.38237 21.663 5.19677 20.4982 5.14237C19.3366 5.09117 18.9654 5.07837 15.999 5.07837Z" fill="white"/>
<path d="M16.0002 10.3904C12.9026 10.3904 10.3906 12.9024 10.3906 16C10.3906 19.0976 12.9026 21.6096 16.0002 21.6096C19.0978 21.6096 21.6098 19.0976 21.6098 16C21.6098 12.9024 19.0978 10.3904 16.0002 10.3904ZM16.0002 19.6416C13.9906 19.6416 12.3586 18.0128 12.3586 16C12.3586 13.9872 13.9906 12.3584 16.0002 12.3584C18.0098 12.3584 19.6418 13.9872 19.6418 16C19.6418 18.0128 18.0098 19.6416 16.0002 19.6416Z" fill="white"/>
<path d="M21.8276 11.4817C22.5522 11.4817 23.1396 10.8943 23.1396 10.1697C23.1396 9.44507 22.5522 8.85767 21.8276 8.85767C21.103 8.85767 20.5156 9.44507 20.5156 10.1697C20.5156 10.8943 21.103 11.4817 21.8276 11.4817Z" fill="white"/>
<defs>
<linearGradient id="paint0_linear_5053_7" x1="4.68629" y1="27.3137" x2="27.3137" y2="4.68629" gradientUnits="userSpaceOnUse">
<stop stop-color="#FFD521"/>
<stop offset="0.0551048" stop-color="#FFD020"/>
<stop offset="0.1241" stop-color="#FEC01E"/>
<stop offset="0.2004" stop-color="#FCA71B"/>
<stop offset="0.2821" stop-color="#FA8316"/>
<stop offset="0.3681" stop-color="#F85510"/>
<stop offset="0.4563" stop-color="#F51E09"/>
<stop offset="0.5" stop-color="#F30005"/>
<stop offset="0.5035" stop-color="#F20007"/>
<stop offset="0.5966" stop-color="#E1003B"/>
<stop offset="0.6879" stop-color="#D30067"/>
<stop offset="0.7757" stop-color="#C70088"/>
<stop offset="0.8589" stop-color="#BF00A0"/>
<stop offset="0.9357" stop-color="#BB00AF"/>
<stop offset="1" stop-color="#B900B4"/>
</linearGradient>
</defs>
</svg>
